<svg xmlns="http://www.w3.org/2000/svg" width="153" height="150" viewBox="0 0 153 150" fill="none">
<circle cx="75" cy="75" r="75" fill="white"/>
<circle cx="75" cy="75" r="60" fill="black" fill-opacity="0.95"/>
<path opacity="0.6" d="M122.254 102.42C122.16 103.353 121.694 104.147 120.854 104.8C120.107 105.453 119.687 106.293 119.594 107.32C118.847 107.6 118.054 107.88 117.214 108.16C116.467 108.44 115.674 108.72 114.834 109C109.514 110.96 103.54 113.013 96.9137 115.16C90.3803 117.307 83.427 119.08 76.0537 120.48C68.6803 121.88 61.1203 122.44 53.3737 122.16C48.6137 121.973 43.9003 121.413 39.2337 120.48C34.6603 119.453 30.9737 117.727 28.1737 115.3C27.147 113.34 26.727 110.96 26.9137 108.16C27.1937 105.36 27.7537 102.42 28.5937 99.34C29.527 96.26 30.4137 93.3667 31.2537 90.66C31.5337 89.82 31.8137 89.0267 32.0937 88.28C32.3737 87.44 32.607 86.6933 32.7937 86.04C33.5403 83.4267 34.2403 80.86 34.8937 78.34C35.547 75.7267 36.3403 73.2067 37.2737 70.78C38.1137 68.54 39.0937 66.3 40.2137 64.06C41.427 61.82 42.6403 59.6267 43.8537 57.48C44.8803 55.4267 46.0003 53.3267 47.2137 51.18C48.427 48.94 49.687 46.84 50.9937 44.88C52.9537 41.9867 55.007 39.3733 57.1537 37.04C59.3003 34.7067 61.6803 32.6533 64.2937 30.88C65.0403 30.4133 66.2537 30.2267 67.9337 30.32C69.6137 30.4133 71.3403 30.6467 73.1137 31.02C74.9803 31.3933 76.3803 31.86 77.3137 32.42C79.1803 33.3533 80.9537 35.0333 82.6337 37.46C84.3137 39.8867 85.8537 42.5 87.2537 45.3C88.747 48.1 90.007 50.6667 91.0337 53C92.247 55.52 93.367 57.9467 94.3937 60.28C95.4203 62.52 96.307 65.04 97.0537 67.84C97.147 68.0267 97.1003 68.2133 96.9137 68.4C96.6337 68.4933 96.587 68.68 96.7737 68.96C95.9337 69.9867 94.907 70.9667 93.6937 71.9C92.4803 72.8333 91.3137 73.1133 90.1937 72.74C89.2603 72.3667 88.467 71.34 87.8137 69.66C87.1603 67.8867 86.4603 66.2533 85.7137 64.76C84.3137 61.8667 82.9603 59.0667 81.6537 56.36C80.347 53.6533 78.7603 50.9933 76.8937 48.38C76.0537 47.26 75.027 46 73.8137 44.6C72.6003 43.1067 71.6203 42.3133 70.8737 42.22C69.4737 42.1267 68.307 42.64 67.3737 43.76C66.5337 44.7867 65.6937 45.9533 64.8537 47.26C64.2937 48.2867 63.6403 49.2667 62.8937 50.2C62.2403 51.1333 61.447 51.7867 60.5137 52.16C57.7137 58.04 54.8203 63.92 51.8337 69.8C48.847 75.5867 46.1403 81.7 43.7137 88.14C41.3803 94.4867 39.6537 101.533 38.5337 109.28C41.3337 111.147 44.787 112.407 48.8937 113.06C53.0937 113.62 57.2937 113.807 61.4937 113.62C65.787 113.433 69.427 113.107 72.4137 112.64C78.2937 111.707 84.0803 110.493 89.7737 109C95.5603 107.507 101.16 106.107 106.574 104.8C111.987 103.4 117.214 102.607 122.254 102.42Z" fill="white"/>
<path d="M112.3 82.4C112.233 83.0667 112.2 83.8333 112.2 84.7C112.2 85.5 112.233 86.3333 112.3 87.2C112.3 88.3333 112.3 89.5 112.3 90.7C112.3 91.9 112.233 93.0333 112.1 94.1C112.033 94.7 111.7 95.6 111.1 96.8C110.567 97.9333 109.833 99 108.9 100C108.033 101 107.033 101.5 105.9 101.5C104.433 102.433 102.767 103.667 100.9 105.2C99.1 106.733 97.8 108.033 97 109.1C96.9333 109.167 96.3333 109.533 95.2 110.2C94.0667 110.867 92.8333 111.633 91.5 112.5C90.2333 113.3 89.2 114.1 88.4 114.9C85.9333 116.167 83.6333 117.9 81.5 120.1C79.4333 122.3 77.5 124.233 75.7 125.9C75.2333 125.767 74.7333 125.733 74.2 125.8C73.7333 125.867 73.2333 125.933 72.7 126C71.6333 126.133 70.5667 126.167 69.5 126.1C68.5 126.033 67.6333 125.4 66.9 124.2C66.6333 119.533 65.8667 114.533 64.6 109.2C63.3333 103.8 61.7667 98.3667 59.9 92.9C58.0333 87.4333 56.0667 82.2667 54 77.4C52 72.4667 50.1 68.1 48.3 64.3L49.7 64.6C52.4333 67.3333 54.9667 70.8 57.3 75C59.6333 79.2 61.7667 83.7667 63.7 88.7C65.7 93.5667 67.5 98.4 69.1 103.2C70.7 107.933 72.0667 112.233 73.2 116.1C74 115.967 75.1333 115.4 76.6 114.4C78.0667 113.4 79.6667 112.2 81.4 110.8C83.2 109.4 84.9333 108.133 86.6 107C88.2667 105.8 89.7 105 90.9 104.6C92.3 103.067 94 101.767 96 100.7C98 99.5667 99.7333 98.3667 101.2 97.1C102.333 94.3667 103 91.8333 103.2 89.5C103.4 87.1 103.433 85.1 103.3 83.5C103.167 81.8333 102.767 79.8667 102.1 77.6C101.5 75.3333 100.767 73.1333 99.9 71C99.0333 68.8 98.1667 67.0333 97.3 65.7C96.9 65.0333 96.1667 64.6667 95.1 64.6C94.0333 64.4667 93.1333 64.2 92.4 63.8C92.2667 63.4667 92.1 63.2 91.9 63C91.7 62.8 91.5 62.6333 91.3 62.5C90.9667 62.1667 90.7 61.8333 90.5 61.5C90.3 61.1667 90.3 60.6667 90.5 60C92.9667 59 94.9333 58.6333 96.4 58.9C97.9333 59.1667 99.1333 59.7667 100 60.7C100.933 61.5667 101.733 62.4667 102.4 63.4C102.8 63.8667 103.167 64.3 103.5 64.7C103.833 65.1 104.167 65.4333 104.5 65.7C104.833 66.6333 105.333 67.6667 106 68.8C106.667 69.8667 107.367 71 108.1 72.2C109.3 74.0667 110.4 75.9333 111.4 77.8C112.4 79.6 112.7 81.1333 112.3 82.4Z" fill="white"/>
</svg>